<?xml version="1.0" encoding="UTF-8" standalone="no"?>
<svg
   width="38.001mm"
   height="54.876mm"
   viewBox="476.851135 -344.075012 38.001099 54.875916"
   version="1.1"
   id="svg18"
   sodipodi:docname="veniceai.svg"
   inkscape:version="1.4 (e7c3feb100, 2024-10-09)"
   xmlns:inkscape="http://www.inkscape.org/namespaces/inkscape"
   xmlns:sodipodi="http://sodipodi.sourceforge.net/DTD/sodipodi-0.dtd"
   xmlns="http://www.w3.org/2000/svg"
   xmlns:svg="http://www.w3.org/2000/svg">
  <defs
     id="defs18" />
  <sodipodi:namedview
     id="namedview18"
     pagecolor="#ffffff"
     bordercolor="#000000"
     borderopacity="0.25"
     inkscape:showpageshadow="2"
     inkscape:pageopacity="0.0"
     inkscape:pagecheckerboard="0"
     inkscape:deskcolor="#d1d1d1"
     inkscape:document-units="mm"
     showgrid="false"
     inkscape:zoom="3.8571811"
     inkscape:cx="71.684475"
     inkscape:cy="103.70268"
     inkscape:window-width="1920"
     inkscape:window-height="1011"
     inkscape:window-x="0"
     inkscape:window-y="32"
     inkscape:window-maximized="1"
     inkscape:current-layer="svg18" />
  <path
     id="path1"
     style="stroke:#000000;stroke-width:0.189mm;fill:#000000;fill-opacity:1"
     d="M 72.258329 207.96085 C 70.350193 207.94186 68.384357 207.31237 66.353273 206.07389 C 60.128023 202.27796 59.668103 191.76642 65.525041 187.15935 L 67.999969 185.21183 L 67.999969 166.10586 L 67.999969 146.99989 L 64.438964 146.99989 C 60.936252 146.99989 60.885159 146.93868 61.190499 143.24941 L 61.499133 139.50088 L 68.750065 139.20592 L 75.999044 138.91291 L 75.999044 120.95357 L 75.999044 102.99423 L 79.499495 106.86777 L 82.999945 110.74327 L 82.999945 128.8706 L 82.999945 146.99989 L 79.499495 146.99989 L 75.999044 146.99989 L 75.999044 165.93201 L 75.999044 184.86413 L 78.96427 186.97573 C 82.293997 189.34671 84.211251 194.68854 83.324205 199.12378 C 83.006227 200.71365 81.213883 203.36146 79.339318 205.00735 C 77.069276 207.00047 74.711646 207.98527 72.258329 207.96085 z M 72.387252 199.76253 C 73.462024 199.75173 74.554577 199.07239 75.375917 197.76814 C 76.214608 196.43633 76.084936 195.65648 74.811392 194.38294 C 71.815687 191.38722 67.346416 195.30121 70.047107 198.55535 C 70.72737 199.37502 71.551318 199.77093 72.387252 199.76253 z "
     transform="matrix(0.26455,0,0,-0.26455,476.807465,-289.066833)" />
  <path
     id="path3"
     style="stroke:#000000;stroke-width:0.189mm;fill:#000000;fill-opacity:1"
     d="M 10.750419 184.87585 C 9.4830753 184.83751 8.2331424 184.32928 6.1990519 183.32683 C -1.3182771 179.62208 -1.9842597 168.17869 5.0328863 163.2637 C 6.8635293 161.98147 6.9999362 160.64954 6.9999362 143.94285 L 6.9999362 125.99914 L 20.499719 125.99914 L 33.999502 125.99914 L 33.999502 123.00071 C 33.999502 120.16737 34.222238 120.00032 38.000017 120.00032 C 41.777796 120.00032 42.000531 120.16737 42.000531 123.00071 C 42.000531 125.66737 42.334249 125.99914 45.000917 125.99914 C 47.813348 125.99914 47.99935 125.76018 47.99935 122.16076 C 47.99935 119.01681 48.460909 118.11039 50.546552 117.16011 C 55.229948 115.02622 56.000379 115.56892 56.000379 121.00045 C 56.000379 125.66712 56.167368 125.99914 58.5007 125.99914 C 60.934992 125.99914 61.000068 125.80961 61.026416 118.75016 C 61.052092 111.86994 61.231958 111.30944 64.54054 107.7507 C 66.458066 105.6882 68.258751 104.00022 68.541054 104.00022 C 68.823357 104.00022 68.92962 110.63766 68.777413 118.75016 L 68.500033 133.50011 L 41.750499 133.76576 L 15.000965 134.03338 L 15.000965 147.58395 L 15.000965 161.13452 L 18.499462 164.43572 C 21.575941 167.33721 21.999912 168.33043 21.999912 172.64577 C 21.999912 178.4595 20.078032 181.65213 15.401407 183.60616 C 13.301534 184.48354 12.017762 184.9142 10.750419 184.87585 z M 10.969197 176.91585 C 11.462172 176.9106 12.024256 176.63575 12.836624 176.12082 C 13.572244 175.65454 14.022374 174.19882 13.836753 172.88603 C 13.584314 171.10065 12.873841 170.50096 11.014124 170.50096 C 8.1866063 170.50096 7.1172649 173.23263 9.0392609 175.54848 C 9.8171309 176.48576 10.335372 176.92259 10.969197 176.91585 z "
     transform="matrix(0.26455,0,0,-0.26455,476.807465,-289.066833)" />
  <path
     id="path5"
     style="stroke:#000000;stroke-width:0.189mm;fill:#000000;fill-opacity:1"
     d="M 33.999502 185.00087 L 33.999502 173.49939 L 33.999502 161.99986 L 45.000917 161.99986 L 56.000379 161.99986 L 56.000379 173.49939 L 56.000379 185.00087 L 45.000917 185.00087 L 33.999502 185.00087 z M 45.000917 176.99984 C 47.667585 176.99984 47.99935 176.66613 47.99935 173.99945 C 47.99935 171.33278 47.667585 170.99907 45.000917 170.99907 C 42.334249 170.99907 42.000531 171.33278 42.000531 173.99945 C 42.000531 176.66613 42.334249 176.99984 45.000917 176.99984 z "
     transform="matrix(0.26455,0,0,-0.26455,476.807465,-289.066833)" />
  <path
     id="path7"
     style="stroke:#000000;stroke-width:0.189mm;fill:#000000;fill-opacity:1"
     d="M 89.000717 185.00087 L 89.000717 173.49939 L 89.000717 161.99986 L 100.00018 161.99986 L 110.99964 161.99986 L 110.99964 173.49939 L 110.99964 185.00087 L 100.00018 185.00087 L 89.000717 185.00087 z M 100.00018 176.99984 C 102.66684 176.99984 103.00056 176.66613 103.00056 173.99945 C 103.00056 171.33278 102.66684 170.99907 100.00018 170.99907 C 97.333514 170.99907 96.999792 171.33278 96.999792 173.99945 C 96.999792 176.66613 97.333514 176.99984 100.00018 176.99984 z "
     transform="matrix(0.26455,0,0,-0.26455,476.807465,-289.066833)" />
  <path
     id="path9"
     style="stroke:#000000;stroke-width:0.189mm;fill:#000000;fill-opacity:1"
     d="M 132.94582 184.86804 C 131.67299 184.8754 130.36921 184.42955 128.31437 183.53584 C 120.76852 180.25393 119.91321 166.79195 127.00951 162.99413 C 128.8499 162.00919 129 160.882 129 147.96486 L 129 134.00017 L 120.0008 134.00017 L 110.99964 134.00017 L 110.99964 146.49982 L 110.99964 158.99948 L 106.99913 158.99948 L 103.00056 158.99948 L 103.00056 139.50088 L 103.00056 120.00032 L 106.99913 120.00032 C 110.7769 120.00032 110.99964 120.16737 110.99964 123.00071 L 110.99964 125.99914 L 123.99936 125.99914 L 136.99908 125.99914 L 136.99908 143.70259 L 136.99908 161.40409 L 140.07955 164.58223 C 146.01626 170.70735 144.69299 180.01934 137.39366 183.4831 C 135.46171 184.39987 134.21865 184.86068 132.94582 184.86804 z M 132.32855 176.43336 C 134.15755 176.49979 136.09717 174.69004 135.81142 172.68288 C 135.35081 169.44741 130.62446 169.61714 130.16226 172.88603 C 129.97664 174.19882 130.4017 175.63176 131.10769 176.06808 C 131.48939 176.30398 131.90648 176.41803 132.32855 176.43336 z "
     transform="matrix(0.26455,0,0,-0.26455,476.807465,-289.066833)" />
  <path
     transform="matrix(0.26455,0,0,-0.26455,476.807465,-289.066833)"
     style="stroke:#000000;stroke-width:0.189mm;fill:#000000;fill-opacity:1"
     d="M34,149L34,139L45,139L56,139L56,149L56,159L52,159L48,159L48,153.5C48,148.055557,47.969696,148,45,148C42.030304,148,42,148.055557,42,153.5L42,159L38,159L34,159L34,149z"
     id="path11" />
  <path
     transform="matrix(0.26455,0,0,-0.26455,476.807465,-289.066833)"
     style="stroke:#000000;stroke-width:0.189mm;fill:#000000;fill-opacity:1"
     d="M89,137.080444L89,115.160889L93,116.732132L97,118.303383L97,138.651688L97,159L93,159L89,159L89,137.080444z"
     id="path12" />
  <path
     id="path13"
     style="stroke:#000000;stroke-width:0.189mm;fill:#000000;fill-opacity:1"
     d="M 7.4140519 114.99968 C 7.0372539 114.99968 7.0395807 109.26249 7.4179587 102.24999 C 9.1703857 69.772289 16.67827 46.922017 32.54033 25.787034 C 40.085344 15.733882 47.512555 9.4293163 57.953755 4.2198073 C 64.453556 0.97680726 66.31758 0.50057895 72.506408 0.50057895 C 78.745108 0.50057895 80.562355 0.9732332 87.518104 4.4112381 C 111.07561 16.054958 131.0434 49.42309 135.93449 85.322035 C 136.9134 92.50688 137.45806 114.99968 136.65333 114.99968 C 136.46282 114.99968 134.80781 114.25162 132.97512 113.33736 C 130.34033 112.02295 126.48963 111.65647 114.57236 111.58713 C 101.49696 111.51104 98.90355 111.22391 94.999535 109.40912 C 88.503212 106.38928 84.274317 102.4568 81.24386 96.620363 C 78.888819 92.084733 78.543809 90.131909 78.21808 79.500973 C 77.880853 68.494702 77.97712 67.674735 79.390106 69.618843 C 82.511719 73.913833 87.38596 75.260882 97.04472 74.496424 C 108.46313 73.592684 113.58075 75.199645 121.35449 82.128264 L 127.05835 87.210949 L 126.39615 82.85492 C 123.28279 62.346997 115.39015 44.487294 102.8482 29.56877 C 93.770093 18.770451 88.10329 14.308603 79.239696 10.980442 C 73.67654 8.8915538 73.315845 8.8758384 67.499904 10.478425 C 64.199901 11.387742 59.359067 13.500866 56.742662 15.174341 C 51.120172 18.770535 40.372775 30.110551 34.749599 38.378497 C 27.04466 49.707332 20.153947 67.909412 18.470161 81.385982 L 17.737645 87.25197 L 22.080001 83.038538 C 29.700139 75.643442 32.860088 74.507662 45.999092 74.443682 C 60.323521 74.373919 59.256325 74.590946 63.464229 70.896351 L 66.99984 67.792436 L 66.99984 76.715459 C 66.99984 91.427968 63.012237 100.92117 54.500186 106.47124 C 47.71215 110.8972 41.701441 112.07927 27.404904 111.80005 C 16.748915 111.59192 13.941763 111.84746 11.299317 113.27289 C 9.5391304 114.22241 7.7908479 114.99968 7.4140519 114.99968 z M 42.154848 98.835491 C 44.492375 98.807018 46.478206 98.41024 48.298216 97.649792 C 51.431273 96.340718 58.000636 89.83859 58.000636 88.046994 C 58.000636 87.561116 58.226039 86.564349 58.502654 85.831866 C 58.900882 84.777346 56.97586 84.510778 49.253417 84.552404 C 35.064891 84.628881 35.360716 84.54293 29.704028 90.199615 L 24.50414 95.399503 L 31.003023 97.102847 C 35.563028 98.298305 39.149456 98.872099 42.154848 98.835491 z M 102.20749 98.817911 C 104.85718 98.817993 108.10483 98.305302 112.43928 97.352879 L 119.93438 95.706183 L 116.85977 91.822871 C 111.88195 85.537867 109.05582 84.508324 96.753667 84.50357 C 90.842824 84.501289 86.00394 84.860735 86.002284 85.300547 C 85.995921 86.986239 88.941488 91.613032 91.661215 94.192316 C 95.03458 97.391484 97.791349 98.817775 102.20749 98.817911 z "
     transform="matrix(0.26455,0,0,-0.26455,476.807465,-289.066833)" />
  <path
     transform="matrix(0.26455,0,0,-0.26455,476.807465,-289.066833)"
     style="stroke:#000000;stroke-width:0.189mm;fill:#000000;fill-opacity:1"
     d="M58.564617,57.665363C57.48399,53.947536,59.407349,52.023308,64.946777,51.280312C68.51004,50.80238,69.418907,50.1894,70.772293,47.351322L72.375854,43.988613L73.646103,47.009644C75.003189,50.237213,75.459946,50.505272,81.237846,51.465118C85.615021,52.192272,87.439415,54.731735,86.058716,58.175526C85.141846,60.462399,85.125748,60.455513,85.063385,57.75C84.989304,54.536091,84.749214,54.46299,81.423851,56.64185C79.402748,57.966129,78.433334,58.06284,76.41198,57.14185C73.32003,55.733063,69.327255,55.66148,68.5,57C67.576714,58.493908,64.416359,58.206604,63,56.5C61.160984,54.284122,60.178413,54.66328,59.760693,57.75L59.388538,60.5L58.564617,57.665363z"
     id="path16" />
  <path
     transform="matrix(0.26455,0,0,-0.26455,476.807465,-289.066833)"
     style="stroke:#000000;stroke-width:0.189mm;fill:#000000;fill-opacity:1"
     d="M61,37C59.075001,35.946106,56.172501,35.064968,54.549999,35.041916C52.27504,35.00959,51.871368,34.728634,52.7859,33.814098C55.177982,31.422016,89.855545,31.455542,92.252258,33.852257C93.115913,34.715916,92.718124,35,90.645134,35C89.129959,35,85.812592,35.946491,83.273209,37.103317C79.163887,38.975327,78.231857,39.066608,74.798042,37.933346C71.85231,36.96117,70.663261,36.936737,69.769974,37.830029C68.099602,39.500401,65.037834,39.210621,61,37z"
     id="path17" />
  <path
     transform="matrix(0.26455,0,0,-0.26455,476.807465,-289.066833)"
     style="stroke:#000000;stroke-width:0.189mm;fill:#000000;fill-opacity:1"
     d="M63,26.329494C63,24.132792,66.402924,20.959564,69.873817,19.919659C73.0103,18.979946,74.223259,19.064093,76.807991,20.400709C79.809464,21.952827,82.688393,25.644939,81.681961,26.651371C81.417915,26.915415,79.284805,26.615234,76.941711,25.984304C73.080666,24.944632,68.2248,25.209034,64.428986,26.665625C63.643044,26.967218,63,26.81596,63,26.329494z"
     id="path18" />
</svg>
